<svg width="110" height="19" viewBox="0 0 110 19" fill="none" xmlns="http://www.w3.org/2000/svg">
<path d="M91.0839 17.7334C90.8967 17.9957 91.0842 18.3598 91.4064 18.3598H94.5472C94.6762 18.3598 94.7972 18.297 94.8714 18.1913L107.188 0.653289C107.373 0.390716 107.185 0.0292969 106.864 0.0292969H103.926C103.798 0.0292969 103.678 0.0911383 103.603 0.195328L91.0839 17.7334Z" fill="#FCD000"/>
<path d="M60.3846 0H53.1511C52.9323 0 52.7549 0.177475 52.7549 0.396401V17.9636C52.7549 18.1825 52.9323 18.36 53.1511 18.36H60.2535C65.9168 18.36 69.9545 14.5306 69.9545 9.17998C69.9545 3.80314 65.943 0 60.3846 0ZM60.4632 15.265H56.6645C56.4456 15.265 56.2682 15.0875 56.2682 14.8686V3.49137C56.2682 3.27244 56.4456 3.09497 56.6645 3.09497H60.3321C63.7668 3.09497 66.3625 5.6129 66.3625 9.20621C66.3625 12.7733 63.8455 15.265 60.4632 15.265Z" fill="white"/>
<path d="M85.5284 18.1167C85.5901 18.2641 85.7342 18.36 85.8939 18.36H88.8025C89.0876 18.36 89.2793 18.0678 89.1661 17.8061L81.5648 0.238935C81.5021 0.093889 81.3592 0 81.2012 0H78.0759C77.9186 0 77.7762 0.0930798 77.713 0.237189L70.0114 17.8044C69.8965 18.0663 70.0884 18.36 70.3743 18.36H73.1486C73.3083 18.36 73.4524 18.2641 73.5141 18.1167L74.9359 14.7214C74.9976 14.574 75.1417 14.4781 75.3014 14.4781H83.741C83.9007 14.4781 84.0448 14.574 84.1065 14.7214L85.5284 18.1167ZM76.8935 11.4619C76.61 11.4619 76.4182 11.1727 76.5284 10.9114L79.1794 4.62371C79.316 4.29955 79.7757 4.30089 79.9105 4.62582L82.5187 10.9135C82.627 11.1746 82.4352 11.4619 82.1527 11.4619H76.8935Z" fill="white"/>
<path d="M103.511 18.193C103.586 18.2978 103.706 18.36 103.834 18.36H107.08C107.403 18.36 107.59 17.9952 107.402 17.7329L94.8339 0.165693C94.7595 0.0616981 94.6395 0 94.5117 0H91.3663C91.0445 0 90.8569 0.363409 91.0432 0.625886L103.511 18.193Z" fill="white"/>
<path d="M12.8888 0.360334C12.8888 0.161327 13.0501 0 13.249 0H15.9012C16.1001 0 16.2614 0.161327 16.2614 0.360334V17.947C16.2614 18.146 16.1001 18.3073 15.9012 18.3073H15.7946C15.545 18.3073 15.3044 18.159 15.133 18.0023L4.01204 7.83687C3.79803 7.57397 3.37254 7.72536 3.37254 8.06441V17.947C3.37254 18.146 3.21127 18.3073 3.01234 18.3073H0.360202C0.161268 18.3073 0 18.146 0 17.947V0.360334C0 0.161327 0.161268 0 0.360202 0H0.435641C0.639227 0 0.786474 0.0575854 0.914445 0.181206L12.2493 11.1308C12.4634 11.3937 12.8888 11.2423 12.8888 10.9033V0.360334Z" fill="white"/>
<path d="M32.9244 11.4028C32.9244 11.5776 32.9127 11.8108 32.8972 12.0399C32.8845 12.2269 32.728 12.3705 32.5407 12.3705H22.354C22.1278 12.3705 21.9567 12.5775 22.0212 12.7944C22.5555 14.5898 24.1823 15.7181 26.4408 15.7181C27.8639 15.7181 29.0072 15.3091 29.949 14.4716C30.1064 14.3316 30.3501 14.3375 30.4884 14.4964L31.7808 15.9824C31.8973 16.1163 31.8998 16.3161 31.7783 16.4455C30.5198 17.7866 28.6404 18.4904 26.3623 18.4904C21.6826 18.4904 18.6499 15.4828 18.6499 11.3244C18.6499 7.16601 21.7088 4.18453 25.8656 4.18453C29.944 4.18453 32.9244 7.03524 32.9244 11.4028ZM25.8656 6.79986C23.894 6.79986 22.4209 7.97879 21.9739 9.78781C21.921 10.0022 22.0909 10.1998 22.3116 10.1998H29.4033C29.6207 10.1998 29.7897 10.0079 29.7419 9.79583C29.3382 8.00295 27.8628 6.79986 25.8656 6.79986Z" fill="white"/>
<path d="M42.6651 18.4904C38.3775 18.4904 35.2403 15.5089 35.2403 11.3244C35.2403 7.13985 38.3775 4.18453 42.6651 4.18453C47.0049 4.18453 50.1161 7.13985 50.1161 11.3244C50.1161 15.5089 47.0049 18.4904 42.6651 18.4904ZM42.6651 15.692C45.0442 15.692 46.8219 13.992 46.8219 11.3244C46.8219 8.65674 45.0442 6.95678 42.6651 6.95678C40.3122 6.95678 38.5344 8.65674 38.5344 11.3244C38.5344 13.992 40.3122 15.692 42.6651 15.692Z" fill="white"/>
<path d="M109.018 2.8142C109.3 3.33045 109.077 3.46282 108.843 3.46282H106.111C105.885 3.46282 105.545 3.39572 105.393 3.13851L103.752 0.675957C103.502 0.272228 103.57 0.0273438 103.966 0.0273438H106.783C107.033 0.0273438 107.24 0.139858 107.369 0.35165L109.018 2.8142Z" fill="white"/>
</svg>
