<svg width="101" height="24" viewBox="0 0 101 24" fill="none" xmlns="http://www.w3.org/2000/svg">
<path d="M59.5781 6.35547H56.7375V8.94071H55.5439V11.3933H56.7375V16.1939C56.7375 16.7849 56.8091 17.2714 56.9523 17.6574C57.0955 18.0433 57.2944 18.3529 57.5491 18.5901C57.8037 18.8314 58.11 18.9962 58.4641 19.0887C58.8182 19.1812 59.212 19.2294 59.6497 19.2294C60.1231 19.2294 60.5408 19.1771 60.9029 19.0686C61.2649 18.96 61.5951 18.8193 61.8935 18.6424V16.3386C61.4559 16.5798 60.9904 16.6964 60.4931 16.6964C59.8844 16.6964 59.5781 16.3708 59.5781 15.7154V11.3973H61.9333V8.94473H59.5781V6.35547Z" fill="white"/>
<path d="M72.1295 10.2756C71.6481 9.80523 71.0792 9.43132 70.4188 9.16194C69.7584 8.89256 69.0423 8.75586 68.2705 8.75586C67.4867 8.75586 66.7626 8.89256 66.1022 9.16998C65.4418 9.4474 64.8689 9.82534 64.3835 10.3038C63.8982 10.7822 63.5162 11.3411 63.2457 11.9764C62.9712 12.6116 62.8359 13.2951 62.8359 14.0228V14.059C62.8359 14.7908 62.9712 15.4702 63.2457 16.1055C63.5202 16.7408 63.8982 17.2956 64.3756 17.766C64.853 18.2364 65.4259 18.6103 66.0863 18.8797C66.7467 19.1491 67.4628 19.2858 68.2346 19.2858C69.0184 19.2858 69.7425 19.1491 70.4029 18.8717C71.0633 18.5942 71.6362 18.2163 72.1216 17.7379C72.6069 17.2594 72.9888 16.7046 73.2594 16.0653C73.5339 15.43 73.6692 14.7465 73.6692 14.0188V13.9826C73.6692 13.2509 73.5339 12.5714 73.2594 11.9361C72.9849 11.3009 72.6069 10.7461 72.1295 10.2756ZM70.8684 14.059C70.8684 14.437 70.8087 14.7908 70.6893 15.1245C70.57 15.4582 70.3989 15.7517 70.1761 16.001C69.9533 16.2543 69.6828 16.4513 69.3645 16.596C69.0462 16.7408 68.6842 16.8131 68.2705 16.8131C67.8726 16.8131 67.5145 16.7367 67.1963 16.588C66.878 16.4352 66.6035 16.2342 66.3648 15.9728C66.1301 15.7155 65.9471 15.418 65.8237 15.0843C65.7004 14.7506 65.6367 14.3967 65.6367 14.0188V13.9826C65.6367 13.6047 65.6964 13.2509 65.8158 12.9172C65.9351 12.5835 66.1062 12.29 66.329 12.0407C66.5518 11.7874 66.8223 11.5904 67.1406 11.4456C67.4589 11.3009 67.8209 11.2285 68.2346 11.2285C68.6205 11.2285 68.9746 11.3049 69.3009 11.4537C69.6231 11.6065 69.9056 11.8075 70.1403 12.0688C70.375 12.3261 70.558 12.6237 70.6814 12.9574C70.8047 13.2911 70.8684 13.6449 70.8684 14.0228V14.059Z" fill="white"/>
<path d="M84.3978 10.1067C83.976 9.66038 83.4867 9.32265 82.9416 9.0975C82.3926 8.87234 81.8277 8.75977 81.2429 8.75977C80.4949 8.75977 79.8743 8.91255 79.3849 9.21811C78.8916 9.52368 78.4739 9.91368 78.1238 10.3881V8.94873H75.2832V22.088H78.1238V17.7538C78.458 18.1519 78.8757 18.5017 79.3651 18.8032C79.8584 19.1047 80.483 19.2535 81.2429 19.2535C81.8396 19.2535 82.4125 19.1409 82.9615 18.9118C83.5106 18.6866 83.992 18.3489 84.4097 17.9026C84.8274 17.4563 85.1616 16.9095 85.4202 16.2622C85.6748 15.6149 85.8021 14.867 85.8021 14.0267V13.9825C85.8021 13.1382 85.6748 12.3944 85.4202 11.7471C85.1576 11.0998 84.8195 10.5529 84.3978 10.1067ZM82.9576 14.0227C82.9576 14.4529 82.8939 14.8389 82.7626 15.1807C82.6313 15.5224 82.4563 15.8159 82.2295 16.0652C82.0067 16.3104 81.7481 16.5034 81.4537 16.6361C81.1593 16.7688 80.845 16.8371 80.5108 16.8371C80.1727 16.8371 79.8584 16.7688 79.568 16.6361C79.2736 16.5034 79.0189 16.3145 78.8041 16.0652C78.5853 15.8199 78.4102 15.5184 78.2829 15.1726C78.1516 14.8228 78.088 14.4409 78.088 14.0227V13.9825C78.088 13.5644 78.1516 13.1824 78.2829 12.8326C78.4142 12.4828 78.5893 12.1853 78.8041 11.9401C79.0229 11.6948 79.2775 11.5018 79.568 11.3691C79.8624 11.2365 80.1767 11.1681 80.5108 11.1681C80.849 11.1681 81.1633 11.2365 81.4537 11.3691C81.7481 11.5018 82.0067 11.6908 82.2295 11.9401C82.4523 12.1853 82.6313 12.4869 82.7626 12.8326C82.8939 13.1824 82.9576 13.5644 82.9576 13.9825V14.0227Z" fill="white"/>
<path d="M90.1589 8.94434H87.3184V19.0642H90.1589V8.94434Z" fill="white"/>
<path d="M90.1589 5.80859H87.3184V8.28528H90.1589V5.80859Z" fill="white"/>
<path d="M99.9329 9.98192C99.2248 9.21399 98.0909 8.83203 96.5314 8.83203C95.684 8.83203 94.9639 8.90842 94.3632 9.05718C93.7664 9.20997 93.1935 9.40295 92.6445 9.64419L93.3526 11.8354C93.8141 11.6585 94.2518 11.5258 94.6695 11.4293C95.0872 11.3369 95.5686 11.2886 96.1176 11.2886C96.8258 11.2886 97.3629 11.4454 97.7249 11.759C98.087 12.0726 98.266 12.535 98.266 13.1381V13.307C97.904 13.1823 97.534 13.0818 97.156 13.0054C96.7741 12.929 96.3325 12.8928 95.8193 12.8928C95.2225 12.8928 94.6775 12.9572 94.1841 13.0898C93.6908 13.2225 93.2691 13.4195 92.915 13.6849C92.5609 13.9502 92.2825 14.284 92.0835 14.686C91.8846 15.0881 91.7852 15.5665 91.7852 16.1214V16.1575C91.7852 16.6601 91.8767 17.1064 92.0557 17.4884C92.2347 17.8743 92.4814 18.196 92.7957 18.4613C93.106 18.7267 93.472 18.9237 93.8897 19.0564C94.3075 19.1891 94.7531 19.2534 95.2265 19.2534C95.9227 19.2534 96.5155 19.1368 97.0009 18.9036C97.4862 18.6704 97.904 18.3608 98.2541 17.9708V19.0644H100.999V13.1944C100.995 11.8193 100.641 10.7499 99.9329 9.98192ZM98.3058 15.4942C98.3058 16.0208 98.1029 16.4511 97.6971 16.7767C97.2913 17.1024 96.7542 17.2672 96.0818 17.2672C95.6203 17.2672 95.2464 17.1587 94.9599 16.9456C94.6735 16.7325 94.5303 16.431 94.5303 16.041V16.0048C94.5303 15.5504 94.7053 15.2047 95.0514 14.9675C95.4015 14.7302 95.8789 14.6096 96.4916 14.6096C96.8417 14.6096 97.1679 14.6458 97.4743 14.7142C97.7806 14.7825 98.0551 14.875 98.3058 14.9876V15.4942Z" fill="white"/>
<path d="M43.0471 13.3794C43.0471 14.4368 42.7964 15.2288 42.2991 15.7596C41.8018 16.2863 41.1096 16.5516 40.2264 16.5516C39.3432 16.5516 38.6509 16.2782 38.1536 15.7314C37.6563 15.1846 37.4057 14.3684 37.4057 13.2869V5.80859H34.5293V13.3593C34.5293 15.3093 35.0346 16.7768 36.0411 17.7578C37.0516 18.7388 38.4321 19.2293 40.1866 19.2293C41.0579 19.2293 41.8496 19.1047 42.5577 18.8594C43.2659 18.6142 43.8706 18.2443 44.3679 17.7457C44.8652 17.2472 45.2471 16.628 45.5177 15.8842C45.7842 15.1404 45.9195 14.2679 45.9195 13.2588V5.80859H43.0431V13.3794H43.0471Z" fill="white"/>
<path d="M53.5173 10.6055H47.8799V13.3958H53.5173V10.6055Z" fill="white"/>
<path d="M11.5653 0.3125C5.1799 0.3125 0 5.54731 0 12.0004C0 18.4574 5.1799 23.6882 11.5653 23.6882C17.9506 23.6882 23.1305 18.4534 23.1305 12.0004C23.1305 5.54731 17.9546 0.3125 11.5653 0.3125ZM18.7025 13.3272H17.2623C17.2584 14.3082 17.1231 15.1646 16.8645 15.8923C16.5979 16.6361 16.212 17.2553 15.7147 17.7538C15.2174 18.2524 14.6127 18.6223 13.9046 18.8675C13.1964 19.1128 12.4047 19.2374 11.5334 19.2374C9.77894 19.2374 8.39445 18.7469 7.38792 17.7659C6.3774 16.7849 5.87612 15.3174 5.87612 13.3674V5.80865H8.75251V13.2829C8.75251 14.3645 9.00315 15.1807 9.50045 15.7275C9.99776 16.2743 10.69 16.5477 11.5732 16.5477C12.4564 16.5477 13.1487 16.2823 13.646 15.7556C14.1433 15.2289 14.3939 14.4328 14.3939 13.3754V13.3191H12.9259V10.5288H14.3939V5.80865H17.2623V10.5328H18.7025V13.3272Z" fill="white"/>
</svg>
