<svg width="101" height="40" viewBox="0 0 101 40" fill="none" xmlns="http://www.w3.org/2000/svg">
<g clip-path="url(#clip0_36363_45497)">
<path d="M59.5781 14.3555H56.7375V16.9407H55.5439V19.3933H56.7375V24.1939C56.7375 24.7849 56.8091 25.2714 56.9523 25.6574C57.0955 26.0433 57.2944 26.3529 57.5491 26.5901C57.8037 26.8314 58.11 26.9962 58.4641 27.0887C58.8182 27.1812 59.212 27.2294 59.6497 27.2294C60.1231 27.2294 60.5408 27.1771 60.9029 27.0686C61.2649 26.96 61.5951 26.8193 61.8935 26.6424V24.3386C61.4559 24.5798 60.9904 24.6964 60.4931 24.6964C59.8844 24.6964 59.5781 24.3708 59.5781 23.7154V19.3973H61.9333V16.9447H59.5781V14.3555Z" fill="#1C1160"/>
<path d="M72.1295 18.2756C71.6481 17.8052 71.0792 17.4313 70.4188 17.1619C69.7584 16.8926 69.0423 16.7559 68.2705 16.7559C67.4867 16.7559 66.7626 16.8926 66.1022 17.17C65.4418 17.4474 64.8689 17.8253 64.3835 18.3038C63.8982 18.7822 63.5162 19.3411 63.2457 19.9764C62.9712 20.6116 62.8359 21.2951 62.8359 22.0228V22.059C62.8359 22.7908 62.9712 23.4702 63.2457 24.1055C63.5202 24.7408 63.8982 25.2956 64.3756 25.766C64.853 26.2364 65.4259 26.6103 66.0863 26.8797C66.7467 27.1491 67.4628 27.2858 68.2346 27.2858C69.0184 27.2858 69.7425 27.1491 70.4029 26.8717C71.0633 26.5942 71.6362 26.2163 72.1216 25.7379C72.6069 25.2594 72.9888 24.7046 73.2594 24.0653C73.5339 23.43 73.6692 22.7465 73.6692 22.0188V21.9826C73.6692 21.2509 73.5339 20.5714 73.2594 19.9361C72.9849 19.3009 72.6069 18.7461 72.1295 18.2756ZM70.8684 22.059C70.8684 22.437 70.8087 22.7908 70.6893 23.1245C70.57 23.4582 70.3989 23.7517 70.1761 24.001C69.9533 24.2543 69.6828 24.4513 69.3645 24.596C69.0462 24.7408 68.6842 24.8131 68.2705 24.8131C67.8726 24.8131 67.5145 24.7367 67.1963 24.588C66.878 24.4352 66.6035 24.2342 66.3648 23.9728C66.1301 23.7155 65.9471 23.418 65.8237 23.0843C65.7004 22.7506 65.6367 22.3967 65.6367 22.0188V21.9826C65.6367 21.6047 65.6964 21.2509 65.8158 20.9172C65.9351 20.5835 66.1062 20.29 66.329 20.0407C66.5518 19.7874 66.8223 19.5904 67.1406 19.4456C67.4589 19.3009 67.8209 19.2285 68.2346 19.2285C68.6205 19.2285 68.9746 19.3049 69.3009 19.4537C69.6231 19.6065 69.9056 19.8075 70.1403 20.0688C70.375 20.3261 70.558 20.6237 70.6814 20.9574C70.8047 21.2911 70.8684 21.6449 70.8684 22.0228V22.059Z" fill="#1C1160"/>
<path d="M84.3978 18.1067C83.976 17.6604 83.4867 17.3226 82.9416 17.0975C82.3926 16.8723 81.8277 16.7598 81.2429 16.7598C80.4949 16.7598 79.8743 16.9125 79.3849 17.2181C78.8916 17.5237 78.4739 17.9137 78.1238 18.3881V16.9487H75.2832V30.088H78.1238V25.7538C78.458 26.1519 78.8757 26.5017 79.3651 26.8032C79.8584 27.1047 80.483 27.2535 81.2429 27.2535C81.8396 27.2535 82.4125 27.1409 82.9615 26.9118C83.5106 26.6866 83.992 26.3489 84.4097 25.9026C84.8274 25.4563 85.1616 24.9095 85.4202 24.2622C85.6748 23.6149 85.8021 22.867 85.8021 22.0267V21.9825C85.8021 21.1382 85.6748 20.3944 85.4202 19.7471C85.1576 19.0998 84.8195 18.5529 84.3978 18.1067ZM82.9576 22.0227C82.9576 22.4529 82.8939 22.8389 82.7626 23.1807C82.6313 23.5224 82.4563 23.8159 82.2295 24.0652C82.0067 24.3104 81.7481 24.5034 81.4537 24.6361C81.1593 24.7688 80.845 24.8371 80.5108 24.8371C80.1727 24.8371 79.8584 24.7688 79.568 24.6361C79.2736 24.5034 79.0189 24.3145 78.8041 24.0652C78.5853 23.8199 78.4102 23.5184 78.2829 23.1726C78.1516 22.8228 78.088 22.4409 78.088 22.0227V21.9825C78.088 21.5644 78.1516 21.1824 78.2829 20.8326C78.4142 20.4828 78.5893 20.1853 78.8041 19.9401C79.0229 19.6948 79.2775 19.5018 79.568 19.3691C79.8624 19.2365 80.1767 19.1681 80.5108 19.1681C80.849 19.1681 81.1633 19.2365 81.4537 19.3691C81.7481 19.5018 82.0067 19.6908 82.2295 19.9401C82.4523 20.1853 82.6313 20.4869 82.7626 20.8326C82.8939 21.1824 82.9576 21.5644 82.9576 21.9825V22.0227Z" fill="#1C1160"/>
<path d="M90.1589 16.9443H87.3184V27.0642H90.1589V16.9443Z" fill="#1C1160"/>
<path d="M90.1589 13.8086H87.3184V16.2853H90.1589V13.8086Z" fill="#1C1160"/>
<path d="M99.9329 17.9819C99.2248 17.214 98.0909 16.832 96.5314 16.832C95.684 16.832 94.9639 16.9084 94.3632 17.0572C93.7664 17.21 93.1935 17.403 92.6445 17.6442L93.3526 19.8354C93.8141 19.6585 94.2518 19.5258 94.6695 19.4293C95.0872 19.3369 95.5686 19.2886 96.1176 19.2886C96.8258 19.2886 97.3629 19.4454 97.7249 19.759C98.087 20.0726 98.266 20.535 98.266 21.1381V21.307C97.904 21.1823 97.534 21.0818 97.156 21.0054C96.7741 20.929 96.3325 20.8928 95.8193 20.8928C95.2225 20.8928 94.6775 20.9572 94.1841 21.0898C93.6908 21.2225 93.2691 21.4195 92.915 21.6849C92.5609 21.9502 92.2825 22.284 92.0835 22.686C91.8846 23.0881 91.7852 23.5665 91.7852 24.1214V24.1575C91.7852 24.6601 91.8767 25.1064 92.0557 25.4884C92.2347 25.8743 92.4814 26.196 92.7957 26.4613C93.106 26.7267 93.472 26.9237 93.8897 27.0564C94.3075 27.1891 94.7531 27.2534 95.2265 27.2534C95.9227 27.2534 96.5155 27.1368 97.0009 26.9036C97.4862 26.6704 97.904 26.3608 98.2541 25.9708V27.0644H100.999V21.1944C100.995 19.8193 100.641 18.7499 99.9329 17.9819ZM98.3058 23.4942C98.3058 24.0208 98.1029 24.4511 97.6971 24.7767C97.2913 25.1024 96.7542 25.2672 96.0818 25.2672C95.6203 25.2672 95.2464 25.1587 94.9599 24.9456C94.6735 24.7325 94.5303 24.431 94.5303 24.041V24.0048C94.5303 23.5504 94.7053 23.2047 95.0514 22.9675C95.4015 22.7302 95.8789 22.6096 96.4916 22.6096C96.8417 22.6096 97.1679 22.6458 97.4743 22.7142C97.7806 22.7825 98.0551 22.875 98.3058 22.9876V23.4942Z" fill="#1C1160"/>
<path d="M43.0471 21.3794C43.0471 22.4368 42.7964 23.2288 42.2991 23.7596C41.8018 24.2863 41.1096 24.5516 40.2264 24.5516C39.3432 24.5516 38.6509 24.2782 38.1536 23.7314C37.6563 23.1846 37.4057 22.3684 37.4057 21.2869V13.8086H34.5293V21.3593C34.5293 23.3093 35.0346 24.7768 36.0411 25.7578C37.0516 26.7388 38.4321 27.2293 40.1866 27.2293C41.0579 27.2293 41.8496 27.1047 42.5577 26.8594C43.2659 26.6142 43.8706 26.2443 44.3679 25.7457C44.8652 25.2472 45.2471 24.628 45.5177 23.8842C45.7842 23.1404 45.9195 22.2679 45.9195 21.2588V13.8086H43.0431V21.3794H43.0471Z" fill="#1C1160"/>
<path d="M53.5173 18.6055H47.8799V21.3958H53.5173V18.6055Z" fill="#1C1160"/>
<path d="M11.5653 8.3125C5.1799 8.3125 0 13.5473 0 20.0004C0 26.4574 5.1799 31.6882 11.5653 31.6882C17.9506 31.6882 23.1305 26.4534 23.1305 20.0004C23.1305 13.5473 17.9546 8.3125 11.5653 8.3125ZM18.7025 21.3272H17.2623C17.2584 22.3082 17.1231 23.1646 16.8645 23.8923C16.5979 24.6361 16.212 25.2553 15.7147 25.7538C15.2174 26.2524 14.6127 26.6223 13.9046 26.8675C13.1964 27.1128 12.4047 27.2374 11.5334 27.2374C9.77894 27.2374 8.39445 26.7469 7.38792 25.7659C6.3774 24.7849 5.87612 23.3174 5.87612 21.3674V13.8086H8.75251V21.2829C8.75251 22.3645 9.00315 23.1807 9.50045 23.7275C9.99776 24.2743 10.69 24.5477 11.5732 24.5477C12.4564 24.5477 13.1487 24.2823 13.646 23.7556C14.1433 23.2289 14.3939 22.4328 14.3939 21.3754V21.3191H12.9259V18.5288H14.3939V13.8086H17.2623V18.5328H18.7025V21.3272Z" fill="#1C1160"/>
</g>
<defs>
<clipPath id="clip0_36363_45497">
<rect width="100.999" height="40" fill="white"/>
</clipPath>
</defs>
</svg>
