<svg xmlns="http://www.w3.org/2000/svg" version="1.1" xmlns:xlink="http://www.w3.org/1999/xlink" xmlns:svgjs="http://svgjs.com/svgjs" width="1000" height="1000"><rect width="1000" height="1000" rx="500" ry="500" fill="#ffffff"></rect><g transform="matrix(21.27659574468085,0,0,21.27659574468085,0.6143836975097656,1.987949088453604)"><svg xmlns="http://www.w3.org/2000/svg" version="1.1" xmlns:xlink="http://www.w3.org/1999/xlink" xmlns:svgjs="http://svgjs.com/svgjs" width="47" height="47"><svg width="47" height="47" viewBox="0 0 47 47" fill="none" xmlns="http://www.w3.org/2000/svg">
<path d="M23.4697 0.0410156C10.5077 0.0410156 0 10.5001 0 23.402C0 36.3039 10.5077 46.7629 23.4697 46.7629C36.4316 46.7629 46.9394 36.3039 46.9394 23.402C46.9394 10.5001 36.4316 0.0410156 23.4697 0.0410156ZM37.9705 25.9788H34.954C34.9067 33.87 30.4141 37.7433 23.3441 37.7433C16.2303 37.7433 11.8795 33.8263 11.8795 26.0326V10.9697H17.7064V25.8813C17.7064 30.2119 19.8244 32.3973 23.4185 32.3973C27.0126 32.3973 29.1305 30.2892 29.1305 26.0696V25.9788H26.2052V20.3605H29.1305V10.9697H34.9574V20.3605H37.9705V25.9788Z" fill="#1C1160"></path>
</svg></svg></g></svg>